<?xml version="1.0" standalone="no"?>
<!DOCTYPE svg PUBLIC "-//W3C//DTD SVG 20010904//EN"
 "http://www.w3.org/TR/2001/REC-SVG-20010904/DTD/svg10.dtd">
<svg version="1.0" xmlns="http://www.w3.org/2000/svg"
 width="20" height="20" viewBox="0 0 512.000000 512.000000"
 preserveAspectRatio="xMidYMid meet">
<g transform="translate(0.000000,512.000000) scale(0.100000,-0.100000)"
fill="#000000" stroke="none">
<path d="M441 5104 c-30 -8 -84 -29 -120 -47 -90 -43 -215 -168 -258 -257 -68
-139 -63 28 -63 -2240 0 -2268 -5 -2101 63 -2240 43 -89 168 -214 257 -257
139 -68 -28 -63 2240 -63 2268 0 2101 -5 2240 63 89 43 214 168 257 257 68
139 63 -28 63 2240 0 2268 5 2101 -63 2240 -43 89 -168 214 -257 257 -139 68
29 63 -2245 62 -1773 0 -2068 -2 -2114 -15z m3884 -1083 l130 -47 3 -141 3
-141 52 -12 c91 -21 227 -63 227 -70 0 -4 -7 -14 -17 -21 -12 -10 -50 -14
-145 -14 l-128 1 0 -31 c0 -46 -46 -130 -92 -169 -136 -117 -343 -74 -431 89
-20 37 -22 57 -25 258 l-3 218 133 64 c73 35 140 64 148 64 8 0 74 -22 145
-48z m-1282 -79 l118 -118 -94 4 c-113 5 -182 -8 -273 -52 -93 -45 -170 -111
-240 -206 -33 -44 -61 -80 -65 -80 -3 0 -20 16 -39 35 l-34 35 249 250 c138
138 252 250 255 250 3 0 58 -53 123 -118z m198 -161 c153 -39 293 -111 456
-233 80 -60 95 -67 111 -57 15 10 27 9 58 -3 36 -15 41 -22 111 -182 40 -92
73 -171 73 -176 0 -4 -22 -22 -50 -39 l-49 -30 16 -53 c45 -153 86 -236 129
-259 51 -27 129 56 236 248 35 62 66 113 71 113 4 0 68 -41 143 -90 88 -60
132 -95 128 -103 -18 -30 -94 -119 -168 -195 -160 -165 -272 -233 -396 -240
-92 -5 -134 12 -199 83 -43 47 -116 186 -127 244 -4 17 -8 31 -10 31 -2 0 -42
-29 -89 -65 -98 -75 -232 -143 -357 -182 -48 -15 -88 -30 -88 -33 1 -3 91 -70
202 -150 110 -80 215 -162 234 -184 85 -98 85 -236 1 -402 -65 -128 -263 -349
-438 -490 l-75 -60 55 4 c49 3 63 -1 110 -30 63 -38 101 -98 101 -160 l0 -38
-389 0 -390 0 106 173 c58 94 109 176 113 181 9 9 189 -112 190 -128 0 -6 -10
-20 -22 -33 l-22 -24 62 23 61 22 -67 49 c-37 27 -111 81 -164 120 -54 39 -98
73 -98 76 1 3 40 29 88 56 113 66 266 179 336 250 30 31 67 81 82 111 39 79
26 115 -75 214 -62 62 -245 200 -264 200 -3 0 -43 -23 -89 -52 -193 -119 -454
-225 -663 -267 -213 -43 -468 -50 -660 -18 l-70 12 -19 193 c-10 106 -16 195
-13 198 2 3 40 -4 83 -15 217 -55 497 -72 635 -38 178 44 259 111 344 283 90
183 178 255 355 288 l85 16 162 -162 161 -161 39 31 c21 17 146 139 278 272
l240 241 -92 89 c-241 232 -523 324 -720 236 -86 -39 -172 -130 -220 -233 -20
-43 -37 -79 -38 -81 -2 -2 -98 38 -278 117 l-48 21 37 72 c109 218 257 355
432 403 73 20 236 18 323 -4z m-1037 -237 c18 -18 19 -24 7 -43 -8 -12 -36
-14 -142 -12 -73 1 -137 5 -141 7 -10 6 -11 48 -1 57 3 4 64 7 134 7 103 0
131 -3 143 -16z m1131 -79 c33 -8 107 -38 165 -66 94 -46 114 -62 192 -142
l87 -91 -32 -37 c-18 -20 -128 -132 -244 -250 l-213 -214 -235 235 c-129 129
-235 241 -235 249 0 27 70 156 111 204 42 49 103 90 167 113 50 18 165 17 237
-1z m-1065 -135 c26 -26 25 -55 -1 -81 -21 -21 -25 -21 -419 -17 -373 3 -400
5 -419 22 -26 24 -27 50 -1 76 19 19 33 20 420 20 387 0 401 -1 420 -20z
m2363 -61 c13 -6 32 -25 42 -42 10 -18 29 -45 43 -62 29 -35 27 -83 -6 -158
l-21 -47 -108 67 c-157 96 -165 105 -142 157 11 24 61 50 73 39 3 -4 6 -1 6 5
0 13 58 52 77 52 7 0 23 -5 36 -11z m-1980 -79 c61 -25 78 -37 83 -57 9 -35
-11 -73 -46 -86 -17 -6 -33 -19 -36 -29 -7 -24 -61 -51 -88 -44 -11 3 -48 33
-81 66 -58 58 -60 62 -59 110 1 27 7 64 14 84 l11 35 62 -23 c34 -13 97 -38
140 -56z m-964 -89 c7 -13 7 -23 -2 -35 -11 -14 -55 -17 -362 -23 -325 -6
-351 -5 -364 11 -11 13 -12 22 -4 34 12 19 131 26 510 30 198 2 213 1 222 -17z
m719 -273 c3 -22 -1 -28 -20 -32 -13 -3 -174 -7 -359 -10 -358 -6 -366 -5
-357 41 5 25 77 30 438 29 l295 -1 3 -27z m-1577 -494 c9 -11 10 -20 2 -32 -8
-14 -34 -18 -134 -23 -130 -7 -159 -1 -159 31 0 32 30 39 156 40 99 0 124 -3
135 -16z m505 0 c40 -3 77 -10 84 -14 11 -7 28 -118 29 -192 1 -26 -2 -28 -38
-28 l-39 0 26 -62 c22 -51 26 -79 27 -150 0 -80 -2 -89 -30 -130 -41 -58 -172
-144 -191 -126 -2 2 3 150 11 328 8 179 15 340 15 358 0 27 3 32 18 28 9 -3
49 -8 88 -12z m-235 -104 c10 -6 19 -19 19 -30 0 -11 -9 -24 -19 -30 -13 -6
-146 -10 -366 -10 -311 0 -346 2 -352 16 -3 9 -2 24 4 33 9 14 51 17 344 21
184 3 338 6 342 8 5 1 17 -3 28 -8z m1047 -722 c3 -22 -1 -28 -20 -32 -13 -3
-172 -7 -355 -10 -271 -4 -334 -2 -350 9 -14 11 -16 18 -7 32 14 23 116 30
469 29 l260 -1 3 -27z m416 -111 c10 -7 17 -22 14 -33 -5 -29 -80 -34 -463
-32 -322 3 -340 4 -343 22 -8 39 8 41 371 46 194 3 364 7 378 8 14 1 33 -4 43
-11z m-300 -183 c20 -20 20 -28 -1 -45 -11 -10 -53 -15 -135 -18 -127 -3 -152
4 -146 43 3 20 11 21 123 26 66 4 125 7 132 8 6 1 19 -5 27 -14z"/>
</g>
</svg>
